<svg xmlns="http://www.w3.org/2000/svg" viewBox="0 0 47.62 75.46"><defs><style>.cls-1{fill:#ed462f;stroke:#fff;stroke-miterlimit:10;}</style></defs><g id="Calque_2" data-name="Calque 2"><g id="_3" data-name="3"><path id="icon" class="cls-1" d="M8.32,60.14S-11.09,22.76,17.51,9.49c0,0,2.45-7.25,6.23-8.79L25,9.49s6.64,3.37,9,6.43S47.12,29.3,47.12,29.3v3.88l-4.69,3.61s-5.21-3-9.19-3.3-7.56,4.08-9.91.81c0,0,16.85,16.55,14.5,25.84Zm35.6,11H.5V75H43.92Zm0-4.59A4.88,4.88,0,0,0,39,61.68H5.39A4.88,4.88,0,0,0,.5,66.56v3H43.92Z"/></g></g></svg>